<?xml version="1.0" encoding="UTF-8"?>
<svg id="Layer_2" data-name="Layer 2" xmlns="http://www.w3.org/2000/svg" viewBox="0 0 403.13 576.62">
  <defs>
    <style>
      .cls-1 {
        fill: #4067e2;
      }
    </style>
  </defs>
  <g>
    <g>
      <path class="cls-1" d="M12.66,56.99c4.05-.41,6.94.77,8.66,3.53,1.72,2.76,2.43,19.33,2.13,49.7-.3,30.37-.38,46.4-.25,48.1.14,1.7,5.68,1.68,16.62-.04,10.94-1.72,17.74-2.13,20.4-1.23,2.65.9,4.2,2.82,4.64,5.74.44,2.93-.42,5.65-2.59,8.17-2.16,2.52-10.48,4.58-24.95,6.2-14.47,1.61-23.23,2.18-26.26,1.68-3.04-.49-5.23-1.71-6.57-3.65-1.34-1.94-1.93-20.49-1.76-55.65.16-35.16.85-54.26,2.05-57.33,1.2-3.06,3.83-4.8,7.88-5.21Z"/>
      <path class="cls-1" d="M98.68,67.62c-.11,3.34-1.37,6.18-3.78,8.54-2.41,2.35-5.31,3.53-8.7,3.53s-6.29-1.18-8.7-3.53c-2.41-2.35-3.56-5.2-3.45-8.54-.11-3.34,1.05-6.2,3.49-8.58,2.43-2.38,5.35-3.57,8.74-3.57s6.28,1.19,8.66,3.57c2.38,2.38,3.62,5.24,3.73,8.58ZM95.68,133.32c-.19,23.45.43,55.16-.72,58.33-1.15,3.17-4.14,5.09-8.99,5.74-4.84.66-7.88-1.03-9.11-5.05-1.23-4.02-2.92-36.18-2.48-59.68.44-23.5,1.2-36.65,2.3-39.44,1.09-2.79,3.94-4.43,8.54-4.92,4.6-.49,7.54,1.03,8.82,4.56,1.28,3.53,1.83,17.02,1.64,40.46Z"/>
      <path class="cls-1" d="M210.79,154.29c2.95,4.27,6.15,6.14,9.6,5.62,3.45-.52,6.54-.71,9.27-.57,2.74.14,4.46,2.09,5.17,5.87.71,3.78-.19,6.74-2.71,8.91-2.52,2.16-6.24,3.58-11.16,4.27-4.92.68-10.11,0-15.55-2.05-5.45-2.05-9.6-6.29-12.48-12.72-2.87-6.43-4.09-25.62-3.65-57.58-5.53.44-9.18,0-10.96-1.31-1.78-1.31-2.69-3.41-2.75-6.28-.05-2.87.66-5.11,2.13-6.73,1.48-1.61,5.28-2.8,11.41-3.57,0-16.03.51-25.51,1.52-28.44,1.01-2.93,3.67-4.35,7.96-4.27,4.29.08,6.99,1.66,8.08,4.72,1.09,3.07,1.53,12.2,1.31,27.41,10.39-.87,17.29-.79,20.68.25,3.39,1.04,5.01,3.61,4.84,7.71-.16,4.1-1.71,6.54-4.64,7.3-2.93.77-9.75,1.34-20.48,1.72-1.37,28.89-.57,45.47,2.38,49.74Z"/>
      <path class="cls-1" d="M265.09,116.94c-.3,33.27-1.05,51.63-2.26,55.07-1.2,3.45-3.94,5.23-8.21,5.34-4.27.11-7.01-1.71-8.21-5.46-1.2-3.75-1.89-22.16-2.05-55.24-.17-33.08.15-51.28.94-54.62.79-3.34,3.82-5.12,9.07-5.33,5.25-.22,8.43,1.45,9.52,5.01,1.09,3.56,1.49,21.97,1.19,55.24Z"/>
      <path class="cls-1" d="M166.23,312c-.71-3.78-2.44-5.73-5.17-5.87-2.74-.14-5.83.05-9.27.57-3.45.52-6.65-1.35-9.6-5.62-1.16-1.68-1.99-28.03-2.48-61.12,10.69-.38,17.66-.96,20.58-1.72,2.93-.77,4.47-3.2,4.64-7.3.16-4.1-1.45-6.68-4.84-7.71-3.38-1.04-10.25-1.12-20.59-.25-.52-47.85-.42-102.79.32-118.41,10.72-.38,17.55-.96,20.48-1.72,2.93-.77,4.47-3.2,4.64-7.3.16-4.1-1.45-6.68-4.84-7.71-3.39-1.04-10.29-1.12-20.68-.25.22-15.21-.22-24.35-1.31-27.41-1.09-3.06-3.79-4.64-8.08-4.72-4.3-.08-6.95,1.34-7.96,4.27-1.01,2.93-1.52,12.41-1.52,28.44-6.13.77-9.93,1.96-11.41,3.57-1.48,1.61-2.19,3.86-2.13,6.73.05,2.87.97,4.97,2.75,6.28,1.78,1.31,5.43,1.75,10.96,1.31-.23,16.66,0,69.73.66,117.65-6.35.77-10.35,1.91-11.94,3.44-1.68,1.61-2.49,3.86-2.43,6.73.06,2.87,1.1,4.97,3.13,6.28,1.92,1.24,5.77,1.69,11.52,1.36.62,36.39,1.53,66.25,2.71,68.91,2.87,6.43,7.03,10.67,12.48,12.72,5.44,2.05,10.63,2.74,15.55,2.05,4.92-.68,8.65-2.11,11.16-4.27,2.52-2.16,3.42-5.13,2.71-8.91Z"/>
      <path class="cls-1" d="M290.49,95.81c7.66-6.43,15.5-9.37,23.51-8.82,8.02.55,14.01,3.28,17.98,8.21,3.97,4.92,6.26,12.76,6.89,23.51.63,10.75.41,16.59-.66,17.52-1.07.93-8,1.68-20.81,2.26-12.8.58-19.81.96-21.01,1.15-1.2.19-1.72,2.12-1.56,5.79.16,3.67,1.31,7.05,3.45,10.14,2.13,3.09,5.72,4.64,10.75,4.64s9.26-1.26,12.68-3.78c3.42-2.52,6.36-4.53,8.82-6.03,2.46-1.5,5.14-1.16,8.04,1.03,2.9,2.19,3.79,4.73,2.67,7.63-1.12,2.9-4.05,6.61-8.78,11.12-4.73,4.51-11.49,7.29-20.27,8.33-8.78,1.04-17.39-1.76-25.81-8.41-8.43-6.65-11.77-19.08-10.01-37.3,1.75-18.22,6.46-30.55,14.12-36.97ZM295.91,123.88c.27.96,4.2,1.22,11.78.78,7.58-.44,11.76-.98,12.56-1.64.79-.66,1.09-2.72.9-6.2-.19-3.47-1.27-6.62-3.24-9.44-1.97-2.82-5.19-3.54-9.64-2.17-4.46,1.37-7.7,4.58-9.73,9.64-2.02,5.06-2.9,8.07-2.63,9.03Z"/>
    </g>
    <g>
      <path class="cls-1" d="M101.15,214.23c-.11,3.34-1.37,6.18-3.78,8.54-2.41,2.35-5.31,3.53-8.7,3.53s-6.29-1.18-8.7-3.53c-2.41-2.35-3.56-5.2-3.45-8.54-.11-3.34,1.05-6.2,3.49-8.58,2.43-2.38,5.35-3.57,8.74-3.57s6.28,1.19,8.66,3.57c2.38,2.38,3.62,5.24,3.73,8.58ZM99.92,276.42c-.19,23.45-.86,36.76-2.01,39.93-1.15,3.17-4.14,5.09-8.99,5.74-4.84.66-7.88-1.03-9.11-5.05-1.23-4.02-1.63-17.78-1.19-41.28.44-23.5,1.2-36.65,2.3-39.44,1.09-2.79,3.94-4.43,8.54-4.92,4.6-.49,7.54,1.03,8.82,4.56,1.28,3.53,1.83,17.02,1.64,40.46Z"/>
      <path class="cls-1" d="M46.21,260.08c6.95.06,12.76,2.12,17.44,6.2,4.68,4.08,7.3,10.41,7.88,19,.57,8.59-3.35,16.32-11.78,23.19-8.43,6.87-19.28,11.08-32.54,12.64-13.27,1.56-21.05,1.46-23.35-.29-2.3-1.75-3.57-20.81-3.82-57.17-.25-36.36.58-55.66,2.46-57.9,1.89-2.24,7.59-3.42,17.11-3.53,9.52-.11,19.36.93,29.51,3.12,10.15,2.19,15.68,10.6,16.58,25.24.9,14.64-5.6,24.47-19.49,29.51ZM20.52,220.03l-.49,33.16c15.05-.38,23.39-5.13,25.03-14.24,1.64-9.11.05-14.83-4.76-17.15-4.81-2.32-11.41-2.91-19.78-1.76ZM20.03,272.31c.33,19.42,1.01,29.56,2.05,30.41,1.04.85,5.59.22,13.67-1.89,8.07-2.11,12.65-6.05,13.75-11.82,1.09-5.77-.23-10.66-3.98-14.65-3.75-3.99-12.24-4.68-25.48-2.05Z"/>
    </g>
    <path class="cls-1" d="M305.23,239.24c10.72-.71,17.55-.68,20.48.08,2.93.77,4.47,3.2,4.64,7.3.16,4.1-1.45,6.68-4.84,7.72-3.39,1.04-10.29,1.67-20.68,1.89.22,39.29.05,60.05-.49,62.3-.55,2.24-3.24,3.68-8.08,4.31-4.84.63-7.77-.11-8.78-2.22-1.01-2.11-1.52-22.94-1.52-62.5-6.13.33-9.93-.32-11.41-1.93-1.48-1.61-2.19-3.84-2.13-6.69.05-2.84.97-4.94,2.75-6.28,1.78-1.34,5.43-2.34,10.96-3-.44-10.07,1.05-18.32,4.47-24.75,3.42-6.43,7.99-10.67,13.71-12.72,5.72-2.05,11.17-3.01,16.37-2.87,5.2.14,9.06.88,11.57,2.22,2.52,1.34,3.56,4.04,3.12,8.08-.44,4.05-2.16,6.42-5.17,7.1-3.01.68-6.37,1.04-10.1,1.07-3.72.03-7.2,1.63-10.42,4.8-3.23,3.18-4.71,8.54-4.43,16.09Z"/>
    <path class="cls-1" d="M200.97,350.88c.92,3.68,2.17,39.52,3.76,107.52,1.59,68,1.36,104.24-.69,108.74-2.05,4.5-8.18,6.95-18.41,7.36-10.23.41-16.41-1.51-18.56-5.75-2.15-4.24-2.68-32.28-1.61-84.13,1.07-51.84.54-77.76-1.61-77.76s-8.54,19.71-19.17,59.13c-10.64,39.42-16.9,61.1-18.79,65.03-1.89,3.93-9.33,6.57-22.32,7.9-12.98,1.33-20.7.53-23.16-2.38-2.45-2.91-8.44-25.38-17.94-67.4-9.51-42.03-15.49-63.04-17.94-63.04s-2.89,25.71-1.31,77.15c1.59,51.43.85,79.45-2.22,84.05-3.07,4.6-9.23,6.57-18.48,5.91-9.26-.66-14.49-3.55-15.72-8.67-1.23-5.11-1.48-40.61-.77-106.52.71-65.9,2.66-101.1,5.83-105.6,3.17-4.5,12.58-6.8,28.22-6.9,15.65-.1,24.85,2.02,27.61,6.36,2.76,4.35,8.87,27.66,18.33,69.94,9.46,42.28,15.28,63.01,17.48,62.19,2.2-.82,8.44-22.85,18.71-66.1,10.28-43.25,16.97-66.46,20.09-69.63,3.12-3.17,13.45-4.47,30.98-3.91,17.53.57,26.76,2.74,27.68,6.52Z"/>
    <path class="cls-1" d="M269.06,386.9l-1.72,59.16c36.11-3.75,56.67-4.68,61.66-2.81,5,1.87,7.49,6.32,7.49,13.35s-2.63,11.94-7.88,14.75c-5.26,2.81-25.42,5.67-60.49,8.59-.52,35.18-.65,54.38-.39,57.6.26,3.23,10.8,3.2,31.61-.08,20.81-3.28,33.74-4.58,38.79-3.9,5.05.68,7.99,3.8,8.82,9.37.83,5.57.16,10.9-2.03,16-2.19,5.1-20.61,10.07-55.26,14.91-34.66,4.84-53.54,3.38-56.67-4.37-3.12-7.75-4.53-44.28-4.21-109.59.31-65.3,2.44-99.83,6.4-103.58,3.95-3.75,20.29-6.53,49.02-8.35,28.72-1.82,45.06-1.93,49.02-.31,3.95,1.62,6.35,5.93,7.18,12.96.83,7.02-.55,12.15-4.14,15.38-3.59,3.23-25.99,6.87-67.2,10.93Z"/>
    <path class="cls-1" d="M265.59,261.14c-.23,19.1-4.29,33.57-12.18,43.42-7.88,9.85-17.42,15.3-28.59,16.37-11.18,1.06-21.36-3.28-30.54-13.02-9.18-9.75-13.64-23.54-13.37-41.37.26-17.83,4.79-31.59,13.57-41.27,8.78-9.68,19-14.72,30.64-15.12,11.64-.4,21.36,3.23,29.14,10.88,7.78,7.65,11.56,21.03,11.33,40.12ZM246.45,263.97c.08-14.18-1.9-23.71-5.94-28.58-4.04-4.87-9.09-7.34-15.15-7.42-6.06-.08-12.04,3.51-17.94,10.75-5.9,7.25-8.81,16.78-8.73,28.58.08,11.81,2.62,20.85,7.64,27.12,5.01,6.27,10.7,9.35,17.09,9.24,6.38-.12,11.8-3.22,16.24-9.29,4.44-6.08,6.71-16.21,6.79-30.39Z"/>
  </g>
  <g>
    <path class="cls-1" d="M379.49,29.64c1.04-2.55,1.14-5.56.28-9.02-.86-3.46-2.87-5.5-6.04-6.12-3.17-.62-6.23-.71-9.2-.26-2.96.45-4.6,1.01-4.91,1.69-.31.68-.49,6.16-.53,16.44-.04,10.29.14,15.88.55,16.77.41.9,1.27,1.33,2.6,1.29s2.1-.6,2.34-1.69c.21-.96.33-4.95.36-11.94.74.04,1.62-.02,2.69-.19,3.77,8.29,6.12,12.76,7.05,13.41.93.64,1.93.73,2.99.25,1.06-.48,1.61-1.27,1.65-2.35.04-1.08-2.07-5.21-6.33-12.38,3.28-1.37,5.44-3.33,6.49-5.89ZM373.88,27.61c-.98,2.17-3.13,3.5-6.45,3.98-.97.14-1.78.34-2.47.59.02-7.63.15-11.59.38-11.86.25-.29,1.51-.54,3.78-.73s3.88.55,4.82,2.24c.94,1.69.92,3.62-.06,5.79Z"/>
    <path class="cls-1" d="M368.87,68.52c-18.89,0-34.26-15.37-34.26-34.26S349.97,0,368.87,0s34.26,15.37,34.26,34.26-15.37,34.26-34.26,34.26ZM368.87,7.94c-14.51,0-26.32,11.81-26.32,26.32s11.81,26.32,26.32,26.32,26.32-11.81,26.32-26.32-11.81-26.32-26.32-26.32Z"/>
  </g>
</svg>